<svg width="22" height="22" viewBox="0 0 22 22" fill="none" xmlns="http://www.w3.org/2000/svg">
    <rect width="22" height="22" rx="3" fill="#f9fafb" />
    <path
        d="M6.87188 12.2964C6.77587 11.8173 6.51478 11.3331 6.23263 10.9161C6.59893 10.6847 7.00573 10.5261 7.43112 10.4489L7.50776 10.4344L7.55324 10.4259C8.10711 10.3402 8.66738 10.3038 9.22758 10.3172C9.34633 10.3172 9.46508 10.3172 9.58383 10.3112C9.63998 10.3112 9.69613 10.3087 9.75228 10.3036C10.6027 10.2813 11.4489 10.1755 12.2789 9.9876C12.7127 9.88907 13.1161 9.77439 13.4858 9.65207C13.5994 9.98898 13.7928 10.2928 14.0493 10.5372C14.2177 10.6901 14.3912 10.792 14.3862 10.9619C14.3862 11.0571 14.3129 11.1029 14.1116 11.3867C14.0223 11.5107 13.9317 11.6265 13.8396 11.7341C13.1936 13.2674 12.5594 13.6598 12.0878 13.721C11.5319 13.7932 10.4336 13.5078 10.1229 13.9316C10.1178 13.9384 10.0075 14.0497 10.0226 14.0344C10.2618 13.7796 10.4058 13.2979 10.2382 12.9828C10.1874 12.8968 10.1135 12.827 10.0252 12.7815C9.66722 12.5793 9.01449 12.5453 8.64223 12.4349C8.34493 12.3499 8.05268 12.2455 7.76042 12.1342C7.736 12.1716 7.71158 12.2089 7.68799 12.2472L7.6543 12.3032C7.48884 12.5812 7.3667 12.8832 7.29215 13.1986C7.11612 13.0486 6.9509 12.8863 6.79776 12.7127C6.83869 12.6526 6.86646 12.5844 6.87924 12.5126C6.89202 12.4408 6.88951 12.3671 6.87188 12.2964Z"
        fill="#003C66" />
    <path
        d="M6.8719 12.2964C6.8559 12.2166 6.83484 12.1367 6.81042 12.0569C6.94814 11.9478 7.09527 11.8515 7.25006 11.7689L7.33428 11.7248C7.36713 11.7078 7.40082 11.6908 7.43535 11.6746L7.51452 11.639C7.56758 11.6143 7.62485 11.5922 7.68296 11.5693L8.02743 11.7392C8.43113 11.9425 8.84017 12.1407 9.25455 12.3338C9.49374 12.4434 9.80199 12.5632 10.1271 12.6897C10.341 12.7747 10.5617 12.8596 10.7756 12.9446C10.9752 13.0295 11.1698 13.1094 11.3441 13.1935C11.7079 13.3676 11.9926 13.5451 12.0937 13.7201C12.3202 14.1134 11.9185 14.4974 11.3988 14.6146H11.3904C10.9019 14.6877 10.3461 14.6146 9.75904 14.4447C9.70766 14.4294 9.55017 14.3003 9.47352 14.3538C9.36067 14.4328 9.5628 14.7904 9.48363 14.8635C9.37498 14.968 8.74079 14.5399 7.35702 13.3455C7.29217 13.2665 7.21974 13.1841 7.13973 13.1C7.05972 13.0159 6.97886 12.9403 6.90306 12.8724C6.86348 12.8265 6.82558 12.7798 6.78768 12.7331C6.83386 12.6716 6.86547 12.6003 6.88007 12.5246C6.89467 12.4489 6.89187 12.3709 6.8719 12.2964Z"
        fill="#003C66" />
    <path
        d="M5.76944 10.2356C5.76944 10.2628 5.76944 10.2909 5.77449 10.3206C5.79964 10.6206 5.85179 10.9178 5.9303 11.2083C5.98854 11.4182 6.06549 11.6223 6.16023 11.8182C6.43816 12.406 6.89465 13.0737 7.36629 13.3549C7.25428 13.2742 7.66191 12.4205 7.66865 12.4111C8.39465 11.0138 9.96118 10.1685 11.3534 9.51531C13.1027 8.69303 16.0024 7.37128 16.2155 5.21875C16.3663 3.68973 14.9387 2.29152 13.5541 1.41233C13.2454 1.21572 12.9257 1.03732 12.5965 0.878021C12.5965 1.49728 12.7649 2.08085 12.7978 2.68567C12.8028 2.76382 12.8062 2.84197 12.8062 2.92097C12.809 3.16178 12.7807 3.40194 12.722 3.63536C12.5308 4.36759 11.964 4.88831 11.3289 5.30964C11.2447 5.36486 11.1605 5.41837 11.0763 5.46934C10.964 5.53786 10.8517 5.6044 10.7394 5.66896L10.5709 5.7641C10.5044 5.80148 10.437 5.83885 10.3697 5.87453C9.35899 6.41394 8.25399 6.79704 7.30565 7.44178C6.16781 8.21309 5.70206 9.09822 5.76944 10.2356Z"
        fill="#0086E6" />
    <path
        d="M5.76941 10.2356C5.76941 10.2628 5.76941 10.2909 5.77446 10.3206C5.7945 10.6221 5.84645 10.9205 5.92943 11.2108C5.98146 11.422 6.05896 11.626 6.1602 11.8182C6.43421 12.3253 6.78324 12.7873 7.19529 13.1884C6.88198 12.79 7.55829 10.64 7.68041 10.3784C8.4283 8.77373 9.9283 8.08482 11.4948 7.4112C13.0386 6.74438 14.6473 5.69105 14.7458 3.88595C14.7665 3.47351 14.6976 3.0615 14.544 2.6787C14.3903 2.2959 14.1557 1.95155 13.8564 1.66972C13.8143 1.62894 13.6989 1.52871 13.5541 1.41488C13.2454 1.2174 12.9257 1.03814 12.5965 0.878021L12.5965 0.883118C12.5965 1.50067 12.7649 2.0868 12.802 2.68567C12.807 2.76382 12.8104 2.84197 12.8104 2.92097C12.8162 3.22711 12.7686 3.53189 12.6697 3.82139C12.4499 4.45254 11.9117 4.92569 11.3298 5.30964C11.2455 5.36486 11.1613 5.41837 11.0771 5.46934C10.9648 5.539 10.8525 5.60554 10.7402 5.66896L10.5718 5.7641C10.5052 5.80148 10.4378 5.83885 10.3705 5.87453C8.27418 7.00771 5.67592 7.79091 5.76941 10.2356Z"
        fill="#0086E6" />
    <path
        d="M7.75706 15.4836C7.89622 15.2621 8.06452 15.0606 8.25734 14.8847C8.61677 14.532 9.03762 14.2492 9.49878 14.0506C9.91041 13.8145 10.3091 13.5562 10.693 13.2767L10.7234 13.2555C11.7256 12.5309 13.7419 11.0409 13.4909 9.65546C13.8775 9.80836 15.2065 10.3868 15.7775 11.785C15.8752 12.0254 16.0774 12.519 16.0302 13.1034C15.8794 15.1285 12.8458 15.4309 11.6397 18.0838C10.9044 19.6977 10.9929 21 10.9929 21C10.9929 21 8.70793 20.1998 7.91203 18.8169C7.88424 18.7693 7.85813 18.72 7.83286 18.6708C7.76229 18.5328 7.69931 18.391 7.6442 18.246C7.0597 16.6388 7.75706 15.4836 7.75706 15.4836Z"
        fill="#0086E6" />
    <path
        d="M7.65176 18.2401C7.70706 18.385 7.77004 18.5268 7.84042 18.6648C7.86569 18.7141 7.8918 18.7634 7.91959 18.8109C8.71549 20.1938 11.0004 20.994 11.0004 20.994C9.4078 16.2524 10.9886 15.8412 13.3587 14.4855C15.7042 13.145 13.5347 9.71239 13.4943 9.65292C13.7469 11.0384 11.7256 12.5283 10.7267 13.2529L10.6964 13.2742C10.5625 13.3591 8.29017 14.4982 7.75704 15.4828C7.55757 15.9119 7.44548 16.377 7.4274 16.8507C7.40931 17.3243 7.48561 17.7967 7.65176 18.2401Z"
        fill="#0086E6" />
</svg>